<mxfile host="app.diagrams.net" modified="2023-05-10T01:39:50.873Z" agent="Mozilla/5.0 (Macintosh; Intel Mac OS X 10_15_7) AppleWebKit/537.36 (KHTML, like Gecko) Chrome/113.0.0.0 Safari/537.36" version="21.2.7" etag="-alZVP8gVHSOO_PeH9my" type="github">
  <diagram name="Page-1" id="rV2Z0qNVjZgR5GvGxd9x">
    <mxGraphModel>
      <root>
        <mxCell id="0" />
        <mxCell id="1" parent="0" />
      </root>
    </mxGraphModel>
  </diagram>
</mxfile>
